<svg xmlns="http://www.w3.org/2000/svg" viewBox="0 0 16 16" shape-rendering="crispEdges">
  <rect x="7" y="0" width="2" height="1" fill="#1b1d33" />
  <rect x="7" y="1" width="2" height="1" fill="#1b1d33" />
  <rect x="10" y="1" width="3" height="1" fill="#1b1d33" />
  <rect x="6" y="2" width="1" height="1" fill="#1b1d33" />
  <rect x="7" y="2" width="2" height="1" fill="#e2574c" />
  <rect x="9" y="2" width="2" height="1" fill="#1b1d33" />
  <rect x="11" y="2" width="1" height="1" fill="#9c3a30" />
  <rect x="12" y="2" width="1" height="1" fill="#1b1d33" />
  <rect x="5" y="3" width="1" height="1" fill="#1b1d33" />
  <rect x="6" y="3" width="4" height="1" fill="#e2574c" />
  <rect x="10" y="3" width="1" height="1" fill="#1b1d33" />
  <rect x="11" y="3" width="1" height="1" fill="#9c3a30" />
  <rect x="12" y="3" width="1" height="1" fill="#1b1d33" />
  <rect x="4" y="4" width="1" height="1" fill="#1b1d33" />
  <rect x="5" y="4" width="6" height="1" fill="#e2574c" />
  <rect x="11" y="4" width="2" height="1" fill="#1b1d33" />
  <rect x="3" y="5" width="1" height="1" fill="#1b1d33" />
  <rect x="4" y="5" width="8" height="1" fill="#e2574c" />
  <rect x="12" y="5" width="1" height="1" fill="#1b1d33" />
  <rect x="2" y="6" width="1" height="1" fill="#1b1d33" />
  <rect x="3" y="6" width="10" height="1" fill="#e2574c" />
  <rect x="13" y="6" width="1" height="1" fill="#1b1d33" />
  <rect x="1" y="7" width="14" height="1" fill="#1b1d33" />
  <rect x="2" y="8" width="1" height="1" fill="#1b1d33" />
  <rect x="3" y="8" width="10" height="1" fill="#5b8def" />
  <rect x="13" y="8" width="1" height="1" fill="#1b1d33" />
  <rect x="2" y="9" width="1" height="1" fill="#1b1d33" />
  <rect x="3" y="9" width="1" height="1" fill="#5b8def" />
  <rect x="4" y="9" width="2" height="1" fill="#ffe26b" />
  <rect x="6" y="9" width="4" height="1" fill="#5b8def" />
  <rect x="10" y="9" width="2" height="1" fill="#ffe26b" />
  <rect x="12" y="9" width="1" height="1" fill="#5b8def" />
  <rect x="13" y="9" width="1" height="1" fill="#1b1d33" />
  <rect x="2" y="10" width="1" height="1" fill="#1b1d33" />
  <rect x="3" y="10" width="1" height="1" fill="#5b8def" />
  <rect x="4" y="10" width="2" height="1" fill="#ffe26b" />
  <rect x="6" y="10" width="1" height="1" fill="#5b8def" />
  <rect x="7" y="10" width="2" height="1" fill="#8a5230" />
  <rect x="9" y="10" width="1" height="1" fill="#5b8def" />
  <rect x="10" y="10" width="2" height="1" fill="#ffe26b" />
  <rect x="12" y="10" width="1" height="1" fill="#5b8def" />
  <rect x="13" y="10" width="1" height="1" fill="#1b1d33" />
  <rect x="2" y="11" width="1" height="1" fill="#1b1d33" />
  <rect x="3" y="11" width="4" height="1" fill="#5b8def" />
  <rect x="7" y="11" width="2" height="1" fill="#8a5230" />
  <rect x="9" y="11" width="4" height="1" fill="#5b8def" />
  <rect x="13" y="11" width="1" height="1" fill="#1b1d33" />
  <rect x="2" y="12" width="1" height="1" fill="#1b1d33" />
  <rect x="3" y="12" width="4" height="1" fill="#5b8def" />
  <rect x="7" y="12" width="2" height="1" fill="#8a5230" />
  <rect x="9" y="12" width="4" height="1" fill="#5b8def" />
  <rect x="13" y="12" width="1" height="1" fill="#1b1d33" />
  <rect x="2" y="13" width="1" height="1" fill="#1b1d33" />
  <rect x="3" y="13" width="4" height="1" fill="#5b8def" />
  <rect x="7" y="13" width="2" height="1" fill="#8a5230" />
  <rect x="9" y="13" width="4" height="1" fill="#5b8def" />
  <rect x="13" y="13" width="1" height="1" fill="#1b1d33" />
  <rect x="0" y="14" width="16" height="1" fill="#79c15b" />
  <rect x="0" y="15" width="16" height="1" fill="#4f9a3c" />
</svg>
